<?xml version="1.0" encoding="UTF-8"?>
<svg id="Layer_2" data-name="Layer 2" xmlns="http://www.w3.org/2000/svg" viewBox="0 0 1000 1000">
  <defs>
    <style>
      .cls-1 {
        fill: #10b981;
      }

      .cls-1, .cls-2 {
        stroke-width: 0px;
      }

      .cls-3 {
        fill: #ff8c00;
        stroke: #000;
        stroke-miterlimit: 10;
        stroke-width: 14px;
      }

      .cls-2 {
        fill: #0e090a;
        fill-rule: evenodd;
      }
    </style>
  </defs>
  <g id="Layer_1-2" data-name="Layer 1">
    <g>
      <rect class="cls-1" width="1000" height="1000" rx="133.21" ry="133.21"/>
      <g>
        <g>
          <path class="cls-3" d="m471.06,412.03c-76.33,2.13-112.45,49.81-126.21,96.08-12.53,42.14-38.7,78.99-75.85,101.71-21.58,13.19-39.34,35.74-39.36,74.25-.03,66.93,35.93,129.28,121.27,160.51,39.76,14.55,94.08-41.24,156.64-42.89,63.28-1.66,112.34,52.98,154.15,37.74,88.24-32.16,127.11-92.3,110.09-170.84-10.87-50.18-37.81-74.77-64.85-86.52-38.45-16.71-69.79-47.41-87.02-86.09-18.96-42.59-60.03-86.43-148.85-83.95Z"/>
          <ellipse class="cls-3" cx="378.91" cy="280.97" rx="81.41" ry="113.52" transform="translate(-33.31 51.64) rotate(-7.47)"/>
          <ellipse class="cls-3" cx="243.39" cy="449.69" rx="70.31" ry="98.04" transform="translate(-56.39 35.45) rotate(-7.47)"/>
          <ellipse class="cls-3" cx="592.9" cy="282.59" rx="116.92" ry="83.8" transform="translate(247.71 841.37) rotate(-83.78)"/>
          <ellipse class="cls-3" cx="739.32" cy="441.08" rx="101.46" ry="72.72" transform="translate(220.71 1128.24) rotate(-83.78)"/>
        </g>
        <path class="cls-2" d="m475.95,808.32c38.16-1.49,79.64-11.25,111.14-30.75l26.91-20.88c-20.37,11.88-35.8,23.06-60.02,28.86-.06-7.75.4-7.29-3.33-11.3,18.42-.8,31.33-9.58,30.52-28.69l-19.91-14.4c-8.89-6.94-14.52-7.4-28.46-8.21-.92-9.81-1.78-12.85-7.52-18.88-5.34,5.22-12.57,16.52-9.12,26.39-9.24,3.39-10.27,20.08-13.14,28.63-3.56,10.73-5.05,19.79-11.42,25.59.34-14.69,1.95-29.95,3.33-43.55l3.56-32.02c.23-2.52.92-.4-.17-3.44l-3.73-5.51c34.83,1.09,60.3-9.07,55.94-46.25-7.23-3.27-17.96-4.76-26.97-7.52-17.73-5.34-11.76-4.53-21.69-15.03-11.13-11.82-37.47-14.98-56-7.57-8.66,3.44-15.66,8.15-21.23,13.31-3.62,3.44-9.52,21.75-8.89,27.43.98,8.84,11.94,15.55,17.21,19.05l21,15.78c17.16-7.52,5.85-30.12,4.82-44.7,2.53,2.75.63-1.26,3.73,5.34.63,1.38,1.66,4.82,2.35,6.71,7.4,21.52-1.32,40.45-12.74,38.44-7.06-3.27-7.23-6.37-13.08-10.84-3.96-2.93-10.16-6.37-14.29-8.89l-10.44,15.84c-16.7-30.81-12.28-83.48,30.24-102.93,28.92-13.2,62.88-3.96,81.25,20.2,8.21,10.67,8.09,15.21,12.28,24.9,23.87-15.32,42.52-16.01,71.43-4.3-18.07-14.23-45.9-15.84-67.02-8.72-15.61-62.83-131.28-72.24-148.43,8.72-12.97,61.51,54.74,145.85,81.88,169.2h0Zm65.81-87.67c-.06-6.31.75-10.73-1.84-15.26-4.7,3.38-3.21,1.89-6.08,7.46,3.44,4.53-1.84,8.84,7.92,7.8h0Z"/>
      </g>
    </g>
  </g>
</svg>
